<mxfile host="app.diagrams.net" agent="Mozilla/5.0 (Macintosh; Intel Mac OS X 10_15_7) AppleWebKit/537.36 (KHTML, like Gecko) Chrome/129.0.0.0 Safari/537.36" version="24.8.0">
  <diagram name="第 1 页" id="rA3CSkZyIX9aaA3WpsyF">
    <mxGraphModel dx="1139" dy="620" grid="1" gridSize="10" guides="1" tooltips="1" connect="1" arrows="1" fold="1" page="1" pageScale="1" pageWidth="827" pageHeight="1169" math="0" shadow="0">
      <root>
        <mxCell id="0" />
        <mxCell id="1" parent="0" />
        <mxCell id="4Tl61U_cerP0yscG39lJ-1" value="广告投放" style="rounded=1;whiteSpace=wrap;html=1;fillColor=#1ba1e2;fontColor=#ffffff;strokeColor=#006EAF;" vertex="1" parent="1">
          <mxGeometry x="340" y="100" width="120" height="60" as="geometry" />
        </mxCell>
        <mxCell id="4Tl61U_cerP0yscG39lJ-16" style="edgeStyle=orthogonalEdgeStyle;rounded=0;orthogonalLoop=1;jettySize=auto;html=1;entryX=0.5;entryY=0;entryDx=0;entryDy=0;" edge="1" parent="1" source="4Tl61U_cerP0yscG39lJ-2" target="4Tl61U_cerP0yscG39lJ-13">
          <mxGeometry relative="1" as="geometry" />
        </mxCell>
        <mxCell id="4Tl61U_cerP0yscG39lJ-2" value="splash" style="rounded=1;whiteSpace=wrap;html=1;fillColor=#dae8fc;strokeColor=#6c8ebf;" vertex="1" parent="1">
          <mxGeometry x="70" y="230" width="120" height="60" as="geometry" />
        </mxCell>
        <mxCell id="4Tl61U_cerP0yscG39lJ-17" value="" style="edgeStyle=orthogonalEdgeStyle;rounded=0;orthogonalLoop=1;jettySize=auto;html=1;" edge="1" parent="1" source="4Tl61U_cerP0yscG39lJ-4" target="4Tl61U_cerP0yscG39lJ-14">
          <mxGeometry relative="1" as="geometry" />
        </mxCell>
        <mxCell id="4Tl61U_cerP0yscG39lJ-4" value="banner" style="rounded=1;whiteSpace=wrap;html=1;fillColor=#dae8fc;strokeColor=#6c8ebf;" vertex="1" parent="1">
          <mxGeometry x="340" y="230" width="120" height="60" as="geometry" />
        </mxCell>
        <mxCell id="4Tl61U_cerP0yscG39lJ-18" value="" style="edgeStyle=orthogonalEdgeStyle;rounded=0;orthogonalLoop=1;jettySize=auto;html=1;" edge="1" parent="1" source="4Tl61U_cerP0yscG39lJ-6" target="4Tl61U_cerP0yscG39lJ-15">
          <mxGeometry relative="1" as="geometry" />
        </mxCell>
        <mxCell id="4Tl61U_cerP0yscG39lJ-6" value="&amp;nbsp;blocking" style="rounded=1;whiteSpace=wrap;html=1;fillColor=#dae8fc;strokeColor=#6c8ebf;" vertex="1" parent="1">
          <mxGeometry x="570" y="230" width="120" height="60" as="geometry" />
        </mxCell>
        <mxCell id="4Tl61U_cerP0yscG39lJ-9" value="" style="endArrow=classic;html=1;rounded=0;exitX=0.5;exitY=1;exitDx=0;exitDy=0;entryX=0.5;entryY=0;entryDx=0;entryDy=0;" edge="1" parent="1" source="4Tl61U_cerP0yscG39lJ-1" target="4Tl61U_cerP0yscG39lJ-2">
          <mxGeometry width="50" height="50" relative="1" as="geometry">
            <mxPoint x="260" y="400" as="sourcePoint" />
            <mxPoint x="310" y="350" as="targetPoint" />
          </mxGeometry>
        </mxCell>
        <mxCell id="4Tl61U_cerP0yscG39lJ-10" value="" style="endArrow=classic;html=1;rounded=0;exitX=0.5;exitY=1;exitDx=0;exitDy=0;" edge="1" parent="1" source="4Tl61U_cerP0yscG39lJ-1" target="4Tl61U_cerP0yscG39lJ-4">
          <mxGeometry width="50" height="50" relative="1" as="geometry">
            <mxPoint x="270" y="430" as="sourcePoint" />
            <mxPoint x="320" y="380" as="targetPoint" />
          </mxGeometry>
        </mxCell>
        <mxCell id="4Tl61U_cerP0yscG39lJ-11" value="" style="endArrow=classic;html=1;rounded=0;entryX=0.5;entryY=0;entryDx=0;entryDy=0;exitX=0.5;exitY=1;exitDx=0;exitDy=0;" edge="1" parent="1" source="4Tl61U_cerP0yscG39lJ-1" target="4Tl61U_cerP0yscG39lJ-6">
          <mxGeometry width="50" height="50" relative="1" as="geometry">
            <mxPoint x="250" y="460" as="sourcePoint" />
            <mxPoint x="300" y="410" as="targetPoint" />
          </mxGeometry>
        </mxCell>
        <mxCell id="4Tl61U_cerP0yscG39lJ-12" value="&lt;font style=&quot;font-size: 24px;&quot;&gt;.........&lt;/font&gt;" style="text;html=1;align=center;verticalAlign=middle;whiteSpace=wrap;rounded=0;" vertex="1" parent="1">
          <mxGeometry x="490" y="250" width="60" height="30" as="geometry" />
        </mxCell>
        <mxCell id="4Tl61U_cerP0yscG39lJ-22" value="" style="edgeStyle=orthogonalEdgeStyle;rounded=0;orthogonalLoop=1;jettySize=auto;html=1;" edge="1" parent="1" source="4Tl61U_cerP0yscG39lJ-13" target="4Tl61U_cerP0yscG39lJ-19">
          <mxGeometry relative="1" as="geometry" />
        </mxCell>
        <mxCell id="4Tl61U_cerP0yscG39lJ-13" value="价格排序A" style="rounded=1;whiteSpace=wrap;html=1;fillColor=#d5e8d4;strokeColor=#82b366;" vertex="1" parent="1">
          <mxGeometry x="70" y="340" width="120" height="60" as="geometry" />
        </mxCell>
        <mxCell id="4Tl61U_cerP0yscG39lJ-23" value="" style="edgeStyle=orthogonalEdgeStyle;rounded=0;orthogonalLoop=1;jettySize=auto;html=1;" edge="1" parent="1" source="4Tl61U_cerP0yscG39lJ-14" target="4Tl61U_cerP0yscG39lJ-20">
          <mxGeometry relative="1" as="geometry" />
        </mxCell>
        <mxCell id="4Tl61U_cerP0yscG39lJ-14" value="价格排序B" style="rounded=1;whiteSpace=wrap;html=1;fillColor=#d5e8d4;strokeColor=#82b366;" vertex="1" parent="1">
          <mxGeometry x="340" y="340" width="120" height="60" as="geometry" />
        </mxCell>
        <mxCell id="4Tl61U_cerP0yscG39lJ-24" value="" style="edgeStyle=orthogonalEdgeStyle;rounded=0;orthogonalLoop=1;jettySize=auto;html=1;" edge="1" parent="1" source="4Tl61U_cerP0yscG39lJ-15" target="4Tl61U_cerP0yscG39lJ-21">
          <mxGeometry relative="1" as="geometry" />
        </mxCell>
        <mxCell id="4Tl61U_cerP0yscG39lJ-15" value="价格排序C" style="rounded=1;whiteSpace=wrap;html=1;fillColor=#d5e8d4;strokeColor=#82b366;" vertex="1" parent="1">
          <mxGeometry x="570" y="340" width="120" height="60" as="geometry" />
        </mxCell>
        <mxCell id="4Tl61U_cerP0yscG39lJ-19" value="素材审核A" style="rounded=1;whiteSpace=wrap;html=1;fillColor=#e1d5e7;strokeColor=#9673a6;" vertex="1" parent="1">
          <mxGeometry x="70" y="450" width="120" height="60" as="geometry" />
        </mxCell>
        <mxCell id="4Tl61U_cerP0yscG39lJ-20" value="素材审核B" style="rounded=1;whiteSpace=wrap;html=1;fillColor=#e1d5e7;strokeColor=#9673a6;" vertex="1" parent="1">
          <mxGeometry x="340" y="450" width="120" height="60" as="geometry" />
        </mxCell>
        <mxCell id="4Tl61U_cerP0yscG39lJ-21" value="素材审核C" style="rounded=1;whiteSpace=wrap;html=1;fillColor=#e1d5e7;strokeColor=#9673a6;" vertex="1" parent="1">
          <mxGeometry x="570" y="450" width="120" height="60" as="geometry" />
        </mxCell>
        <mxCell id="4Tl61U_cerP0yscG39lJ-25" value="UI展示" style="rounded=1;whiteSpace=wrap;html=1;fillColor=#1ba1e2;strokeColor=#006EAF;fontColor=#ffffff;" vertex="1" parent="1">
          <mxGeometry x="340" y="590" width="120" height="60" as="geometry" />
        </mxCell>
        <mxCell id="4Tl61U_cerP0yscG39lJ-26" value="" style="endArrow=classic;html=1;rounded=0;exitX=0.5;exitY=1;exitDx=0;exitDy=0;entryX=0.5;entryY=0;entryDx=0;entryDy=0;" edge="1" parent="1" source="4Tl61U_cerP0yscG39lJ-19" target="4Tl61U_cerP0yscG39lJ-25">
          <mxGeometry width="50" height="50" relative="1" as="geometry">
            <mxPoint x="170" y="660" as="sourcePoint" />
            <mxPoint x="220" y="610" as="targetPoint" />
          </mxGeometry>
        </mxCell>
        <mxCell id="4Tl61U_cerP0yscG39lJ-27" value="" style="endArrow=classic;html=1;rounded=0;exitX=0.5;exitY=1;exitDx=0;exitDy=0;entryX=0.5;entryY=0;entryDx=0;entryDy=0;" edge="1" parent="1" source="4Tl61U_cerP0yscG39lJ-20" target="4Tl61U_cerP0yscG39lJ-25">
          <mxGeometry width="50" height="50" relative="1" as="geometry">
            <mxPoint x="180" y="670" as="sourcePoint" />
            <mxPoint x="230" y="620" as="targetPoint" />
          </mxGeometry>
        </mxCell>
        <mxCell id="4Tl61U_cerP0yscG39lJ-28" value="" style="endArrow=classic;html=1;rounded=0;exitX=0.5;exitY=1;exitDx=0;exitDy=0;entryX=0.5;entryY=0;entryDx=0;entryDy=0;" edge="1" parent="1" source="4Tl61U_cerP0yscG39lJ-21" target="4Tl61U_cerP0yscG39lJ-25">
          <mxGeometry width="50" height="50" relative="1" as="geometry">
            <mxPoint x="590" y="650" as="sourcePoint" />
            <mxPoint x="640" y="600" as="targetPoint" />
          </mxGeometry>
        </mxCell>
        <mxCell id="4Tl61U_cerP0yscG39lJ-29" value="广告投放" style="rounded=1;whiteSpace=wrap;html=1;fillColor=#1ba1e2;fontColor=#ffffff;strokeColor=#006EAF;" vertex="1" parent="1">
          <mxGeometry x="1210" y="95" width="120" height="60" as="geometry" />
        </mxCell>
        <mxCell id="4Tl61U_cerP0yscG39lJ-31" value="splash" style="rounded=1;whiteSpace=wrap;html=1;fillColor=#dae8fc;strokeColor=#6c8ebf;" vertex="1" parent="1">
          <mxGeometry x="940" y="225" width="120" height="60" as="geometry" />
        </mxCell>
        <mxCell id="4Tl61U_cerP0yscG39lJ-33" value="banner" style="rounded=1;whiteSpace=wrap;html=1;fillColor=#dae8fc;strokeColor=#6c8ebf;" vertex="1" parent="1">
          <mxGeometry x="1210" y="225" width="120" height="60" as="geometry" />
        </mxCell>
        <mxCell id="4Tl61U_cerP0yscG39lJ-35" value="&amp;nbsp;blocking" style="rounded=1;whiteSpace=wrap;html=1;fillColor=#dae8fc;strokeColor=#6c8ebf;" vertex="1" parent="1">
          <mxGeometry x="1440" y="225" width="120" height="60" as="geometry" />
        </mxCell>
        <mxCell id="4Tl61U_cerP0yscG39lJ-36" value="" style="endArrow=classic;html=1;rounded=0;exitX=0.5;exitY=1;exitDx=0;exitDy=0;entryX=0.5;entryY=0;entryDx=0;entryDy=0;" edge="1" parent="1" source="4Tl61U_cerP0yscG39lJ-29" target="4Tl61U_cerP0yscG39lJ-31">
          <mxGeometry width="50" height="50" relative="1" as="geometry">
            <mxPoint x="1130" y="395" as="sourcePoint" />
            <mxPoint x="1180" y="345" as="targetPoint" />
          </mxGeometry>
        </mxCell>
        <mxCell id="4Tl61U_cerP0yscG39lJ-37" value="" style="endArrow=classic;html=1;rounded=0;exitX=0.5;exitY=1;exitDx=0;exitDy=0;" edge="1" parent="1" source="4Tl61U_cerP0yscG39lJ-29" target="4Tl61U_cerP0yscG39lJ-33">
          <mxGeometry width="50" height="50" relative="1" as="geometry">
            <mxPoint x="1140" y="425" as="sourcePoint" />
            <mxPoint x="1190" y="375" as="targetPoint" />
          </mxGeometry>
        </mxCell>
        <mxCell id="4Tl61U_cerP0yscG39lJ-38" value="" style="endArrow=classic;html=1;rounded=0;entryX=0.5;entryY=0;entryDx=0;entryDy=0;exitX=0.5;exitY=1;exitDx=0;exitDy=0;" edge="1" parent="1" source="4Tl61U_cerP0yscG39lJ-29" target="4Tl61U_cerP0yscG39lJ-35">
          <mxGeometry width="50" height="50" relative="1" as="geometry">
            <mxPoint x="1120" y="455" as="sourcePoint" />
            <mxPoint x="1170" y="405" as="targetPoint" />
          </mxGeometry>
        </mxCell>
        <mxCell id="4Tl61U_cerP0yscG39lJ-39" value="&lt;font style=&quot;font-size: 24px;&quot;&gt;.........&lt;/font&gt;" style="text;html=1;align=center;verticalAlign=middle;whiteSpace=wrap;rounded=0;" vertex="1" parent="1">
          <mxGeometry x="1360" y="245" width="60" height="30" as="geometry" />
        </mxCell>
        <mxCell id="4Tl61U_cerP0yscG39lJ-42" value="" style="edgeStyle=orthogonalEdgeStyle;rounded=0;orthogonalLoop=1;jettySize=auto;html=1;" edge="1" parent="1" source="4Tl61U_cerP0yscG39lJ-43" target="4Tl61U_cerP0yscG39lJ-47">
          <mxGeometry relative="1" as="geometry" />
        </mxCell>
        <mxCell id="4Tl61U_cerP0yscG39lJ-43" value="核心竞价" style="rounded=1;whiteSpace=wrap;html=1;fillColor=#d5e8d4;strokeColor=#82b366;" vertex="1" parent="1">
          <mxGeometry x="1210" y="340" width="120" height="60" as="geometry" />
        </mxCell>
        <mxCell id="4Tl61U_cerP0yscG39lJ-47" value="素材审核" style="rounded=1;whiteSpace=wrap;html=1;fillColor=#e1d5e7;strokeColor=#9673a6;" vertex="1" parent="1">
          <mxGeometry x="1210" y="450" width="120" height="60" as="geometry" />
        </mxCell>
        <mxCell id="4Tl61U_cerP0yscG39lJ-49" value="UI组件" style="rounded=1;whiteSpace=wrap;html=1;fillColor=#1ba1e2;strokeColor=#006EAF;fontColor=#ffffff;" vertex="1" parent="1">
          <mxGeometry x="1210" y="555" width="120" height="60" as="geometry" />
        </mxCell>
        <mxCell id="4Tl61U_cerP0yscG39lJ-51" value="" style="endArrow=classic;html=1;rounded=0;exitX=0.5;exitY=1;exitDx=0;exitDy=0;entryX=0.5;entryY=0;entryDx=0;entryDy=0;" edge="1" parent="1" source="4Tl61U_cerP0yscG39lJ-47" target="4Tl61U_cerP0yscG39lJ-49">
          <mxGeometry width="50" height="50" relative="1" as="geometry">
            <mxPoint x="1050" y="665" as="sourcePoint" />
            <mxPoint x="1100" y="615" as="targetPoint" />
          </mxGeometry>
        </mxCell>
        <mxCell id="4Tl61U_cerP0yscG39lJ-53" value="" style="endArrow=classic;html=1;rounded=0;exitX=0.5;exitY=1;exitDx=0;exitDy=0;" edge="1" parent="1" source="4Tl61U_cerP0yscG39lJ-31">
          <mxGeometry width="50" height="50" relative="1" as="geometry">
            <mxPoint x="1090" y="370" as="sourcePoint" />
            <mxPoint x="1270" y="340" as="targetPoint" />
          </mxGeometry>
        </mxCell>
        <mxCell id="4Tl61U_cerP0yscG39lJ-54" value="" style="endArrow=classic;html=1;rounded=0;exitX=0.5;exitY=1;exitDx=0;exitDy=0;entryX=0.5;entryY=0;entryDx=0;entryDy=0;" edge="1" parent="1" source="4Tl61U_cerP0yscG39lJ-33" target="4Tl61U_cerP0yscG39lJ-43">
          <mxGeometry width="50" height="50" relative="1" as="geometry">
            <mxPoint x="1090" y="410" as="sourcePoint" />
            <mxPoint x="1270" y="350" as="targetPoint" />
          </mxGeometry>
        </mxCell>
        <mxCell id="4Tl61U_cerP0yscG39lJ-55" value="" style="endArrow=classic;html=1;rounded=0;exitX=0.5;exitY=1;exitDx=0;exitDy=0;entryX=0.56;entryY=-0.017;entryDx=0;entryDy=0;entryPerimeter=0;" edge="1" parent="1" source="4Tl61U_cerP0yscG39lJ-35" target="4Tl61U_cerP0yscG39lJ-43">
          <mxGeometry width="50" height="50" relative="1" as="geometry">
            <mxPoint x="1360" y="395" as="sourcePoint" />
            <mxPoint x="1410" y="345" as="targetPoint" />
          </mxGeometry>
        </mxCell>
      </root>
    </mxGraphModel>
  </diagram>
</mxfile>
